<svg width="30" height="16" viewBox="0 0 30 16" fill="none" xmlns="http://www.w3.org/2000/svg">
<path d="M12.0571 2.57938C12.244 2.03937 12.4859 1.48297 13.4633 0.707703C14.4622 1.50236 14.6778 2.04473 14.8696 2.57938" stroke="#A1A1A1" stroke-linecap="round" stroke-linejoin="round"/>
<path d="M6.01943 4.92651C5.91842 4.36129 5.85425 3.75414 6.28275 2.58563C7.46156 2.77573 7.88908 3.14028 8.29382 3.51005" stroke="#A1A1A1" stroke-linecap="round" stroke-linejoin="round"/>
<path d="M21.8459 4.92651C21.9469 4.36129 22.0111 3.75414 21.5826 2.58563C20.4038 2.77573 19.9763 3.14028 19.5715 3.51005" stroke="#A1A1A1" stroke-linecap="round" stroke-linejoin="round"/>
<path d="M3.1319 11.0314C2.7587 10.6055 2.37769 9.93344 2.19556 8.71634C3.37985 8.25511 3.97908 8.15359 4.53642 8.25335" stroke="#A1A1A1" stroke-linecap="round" stroke-linejoin="round"/>
<path d="M0.79126 14.7857C1.58233 13.7899 2.12224 13.575 2.65448 13.3839L2.66493 14.7857" stroke="#A1A1A1" stroke-linecap="round" stroke-linejoin="round"/>
<path d="M26.1421 10.5619C26.5153 10.136 26.8963 9.46396 27.0784 8.24686C25.8941 7.78563 25.2949 7.68411 24.7375 7.78387" stroke="#A1A1A1" stroke-linecap="round" stroke-linejoin="round"/>
<path d="M11.5857 14.5945C11.5857 14.0796 12.006 13.6623 12.5245 13.6623C13.043 13.6623 13.4633 14.0796 13.4633 14.5945" stroke="#A1A1A1" stroke-linecap="round" stroke-linejoin="round"/>
<path d="M9.70776 14.5945C9.70776 13.0429 10.9689 11.7851 12.5246 11.7851C14.0802 11.7851 15.3414 13.0429 15.3414 14.5945" stroke="#A1A1A1" stroke-linecap="round" stroke-linejoin="round"/>
<path d="M7.82959 14.5945C7.82959 12.0062 9.93155 9.9079 12.5245 9.9079C15.1174 9.9079 17.2193 12.0062 17.2193 14.5945" stroke="#A1A1A1" stroke-linecap="round" stroke-linejoin="round"/>
<path d="M6.42578 8.69778C6.44948 8.67339 6.47331 8.64963 6.49729 8.62575C8.03184 7.09806 10.1523 6.15344 12.4942 6.15344C17.1781 6.15344 20.9752 9.9326 20.9752 14.5945" stroke="#A1A1A1" stroke-linecap="round" stroke-linejoin="round"/>
<path d="M18.6279 6.15359C21.0822 8.03224 22.9126 10.8502 22.9126 14.6011L25.2006 14.5946C25.2006 10.8501 22.9126 6.15359 18.6279 6.15359Z" stroke="#A1A1A1" stroke-linecap="round" stroke-linejoin="round"/>
<path d="M28.9523 14.7857C28.1612 13.7899 27.6213 13.575 27.0891 13.3839L27.0786 14.7857" stroke="#A1A1A1" stroke-linecap="round" stroke-linejoin="round"/>
<path d="M14.8718 12.9144L15.8108 11.9754" stroke="#A1A1A1"/>
<path d="M6.42334 12.3518C6.98976 10.9341 8.03258 9.75797 9.37254 9.02545C10.7125 8.29294 12.2659 8.0498 13.7658 8.33784C15.2657 8.62588 16.6183 9.4271 17.5912 10.6038C18.5641 11.7805 19.0965 13.2592 19.097 14.7856" stroke="#A1A1A1" stroke-linecap="round" stroke-linejoin="round"/>
<path d="M6.33077 14.0333C6.39792 13.7828 6.24933 13.5253 5.99888 13.4582C5.74844 13.3911 5.49098 13.5396 5.42383 13.7901C5.35668 14.0405 5.50527 14.298 5.75572 14.3651C6.00616 14.4323 6.26362 14.2837 6.33077 14.0333Z" fill="#A1A1A1"/>
</svg>
