<svg width="20" height="20" viewBox="0 0 20 20" fill="none" xmlns="http://www.w3.org/2000/svg">
<mask id="path-1-inside-1_289_1253" fill="white">
<path d="M10.5932 19.2579L10.5822 19.2599L10.5112 19.2949L10.4912 19.2989L10.4772 19.2949L10.4062 19.2599C10.3955 19.2566 10.3875 19.2583 10.3822 19.2649L10.3782 19.2749L10.3612 19.7029L10.3662 19.7229L10.3762 19.7359L10.4802 19.8099L10.4952 19.8139L10.5072 19.8099L10.6112 19.7359L10.6232 19.7199L10.6272 19.7029L10.6102 19.2759C10.6075 19.2653 10.6018 19.2593 10.5932 19.2579ZM10.8582 19.1449L10.8452 19.1469L10.6602 19.2399L10.6502 19.2499L10.6472 19.2609L10.6652 19.6909L10.6702 19.7029L10.6782 19.7099L10.8792 19.8029C10.8918 19.8063 10.9015 19.8036 10.9082 19.7949L10.9122 19.7809L10.8782 19.1669C10.8748 19.1549 10.8682 19.1476 10.8582 19.1449ZM10.1432 19.1469C10.1388 19.1443 10.1335 19.1434 10.1285 19.1445C10.1234 19.1456 10.119 19.1487 10.1162 19.1529L10.1102 19.1669L10.0762 19.7809C10.0768 19.7929 10.0825 19.8009 10.0932 19.8049L10.1082 19.8029L10.3092 19.7099L10.3192 19.7019L10.3232 19.6909L10.3402 19.2609L10.3372 19.2489L10.3272 19.2389L10.1432 19.1469Z"/>
</mask>
<path d="M10.5932 19.2579L10.6525 18.8725L10.5878 18.8625L10.5234 18.8742L10.5932 19.2579ZM10.5822 19.2599L10.5124 18.8762L10.4587 18.886L10.4097 18.9101L10.5822 19.2599ZM10.5112 19.2949L10.5877 19.6774L10.6378 19.6673L10.6836 19.6447L10.5112 19.2949ZM10.4912 19.2989L10.384 19.6739L10.4749 19.6999L10.5677 19.6814L10.4912 19.2989ZM10.4772 19.2949L10.3047 19.6447L10.3363 19.6603L10.37 19.6699L10.4772 19.2949ZM10.4062 19.2599L10.5786 18.9101L10.5514 18.8967L10.5225 18.8877L10.4062 19.2599ZM10.3822 19.2649L10.0776 19.0213L10.0415 19.0664L10.0201 19.1201L10.3822 19.2649ZM10.3782 19.2749L10.0161 19.1301L9.99114 19.1924L9.98848 19.2595L10.3782 19.2749ZM10.3612 19.7029L9.97148 19.6875L9.96926 19.7433L9.98282 19.7975L10.3612 19.7029ZM10.3662 19.7229L9.98782 19.8175L10.0075 19.8963L10.057 19.9607L10.3662 19.7229ZM10.3762 19.7359L10.067 19.9737L10.1026 20.0199L10.1501 20.0537L10.3762 19.7359ZM10.4802 19.8099L10.2541 20.1277L10.3115 20.1686L10.3797 20.1868L10.4802 19.8099ZM10.4952 19.8139L10.3947 20.1908L10.5076 20.2209L10.6185 20.1839L10.4952 19.8139ZM10.5072 19.8099L10.6305 20.1799L10.6858 20.1615L10.7333 20.1277L10.5072 19.8099ZM10.6112 19.7359L10.8373 20.0537L10.8867 20.0185L10.9232 19.9699L10.6112 19.7359ZM10.6232 19.7199L10.9352 19.9539L10.9841 19.8887L11.0028 19.8093L10.6232 19.7199ZM10.6272 19.7029L11.0068 19.7923L11.019 19.7405L11.0169 19.6874L10.6272 19.7029ZM10.6102 19.2759L10.9999 19.2604L10.9983 19.2203L10.9885 19.1813L10.6102 19.2759ZM10.8582 19.1449L10.9587 18.7681L10.8797 18.747L10.7989 18.7595L10.8582 19.1449ZM10.8452 19.1469L10.7859 18.7615L10.725 18.7708L10.67 18.7985L10.8452 19.1469ZM10.6602 19.2399L10.485 18.8915L10.4288 18.9197L10.3844 18.9642L10.6602 19.2399ZM10.6502 19.2499L10.3744 18.9742L10.3012 19.0474L10.2739 19.1473L10.6502 19.2499ZM10.6472 19.2609L10.2709 19.1583L10.255 19.2168L10.2575 19.2772L10.6472 19.2609ZM10.6652 19.6909L10.2755 19.7072L10.2784 19.7767L10.3052 19.841L10.6652 19.6909ZM10.6702 19.7029L10.3102 19.8529L10.3451 19.9367L10.4134 19.9964L10.6702 19.7029ZM10.6782 19.7099L10.4214 20.0034L10.4635 20.0404L10.5144 20.0639L10.6782 19.7099ZM10.8792 19.8029L10.7154 20.1569L10.7466 20.1713L10.7799 20.1801L10.8792 19.8029ZM10.9082 19.7949L11.2173 20.0327L11.2627 19.9737L11.2832 19.9021L10.9082 19.7949ZM10.9122 19.7809L11.2872 19.8881L11.3052 19.8249L11.3016 19.7594L10.9122 19.7809ZM10.8782 19.1669L11.2676 19.1454L11.2652 19.1032L11.2539 19.0626L10.8782 19.1669ZM10.1432 19.1469L9.94104 19.4805L9.95459 19.4887L9.96876 19.4958L10.1432 19.1469ZM10.1162 19.1529L9.7918 18.9364L9.77186 18.9663L9.75771 18.9993L10.1162 19.1529ZM10.1102 19.1669L9.75171 19.0133L9.72458 19.0766L9.72077 19.1454L10.1102 19.1669ZM10.0762 19.7809L9.68677 19.7594L9.68557 19.781L9.68677 19.8026L10.0762 19.7809ZM10.0932 19.8049L9.95623 20.1701L10.0478 20.2044L10.1447 20.1915L10.0932 19.8049ZM10.1082 19.8029L10.1597 20.1895L10.2183 20.1817L10.2719 20.1569L10.1082 19.8029ZM10.3092 19.7099L10.4729 20.0639L10.5159 20.044L10.5528 20.0145L10.3092 19.7099ZM10.3192 19.7019L10.5628 20.0065L10.6483 19.9381L10.6857 19.8352L10.3192 19.7019ZM10.3232 19.6909L10.6897 19.8242L10.7105 19.7671L10.7129 19.7063L10.3232 19.6909ZM10.3402 19.2609L10.7299 19.2763L10.7321 19.2205L10.7185 19.1663L10.3402 19.2609ZM10.3372 19.2489L10.7155 19.1543L10.6893 19.0495L10.6129 18.9732L10.3372 19.2489ZM10.3272 19.2389L10.6029 18.9632L10.5582 18.9184L10.5016 18.8901L10.3272 19.2389ZM10.5932 19.2579L10.5234 18.8742L10.5124 18.8762L10.5822 19.2599L10.652 19.6436L10.663 19.6416L10.5932 19.2579ZM10.5822 19.2599L10.4097 18.9101L10.3387 18.9451L10.5112 19.2949L10.6836 19.6447L10.7546 19.6097L10.5822 19.2599ZM10.5112 19.2949L10.4347 18.9125L10.4147 18.9165L10.4912 19.2989L10.5677 19.6814L10.5877 19.6774L10.5112 19.2949ZM10.4912 19.2989L10.5983 18.9239L10.5843 18.9199L10.4772 19.2949L10.37 19.6699L10.384 19.6739L10.4912 19.2989ZM10.4772 19.2949L10.6496 18.9451L10.5786 18.9101L10.4062 19.2599L10.2337 19.6097L10.3047 19.6447L10.4772 19.2949ZM10.4062 19.2599L10.5225 18.8877C10.476 18.8732 10.4012 18.8584 10.3126 18.8769C10.2157 18.8971 10.1342 18.9506 10.0776 19.0213L10.3822 19.2649L10.6867 19.5086C10.6355 19.5726 10.5607 19.622 10.4717 19.6405C10.3911 19.6573 10.3256 19.6434 10.2898 19.6322L10.4062 19.2599ZM10.3822 19.2649L10.0201 19.1201L10.0161 19.1301L10.3782 19.2749L10.7403 19.4198L10.7443 19.4098L10.3822 19.2649ZM10.3782 19.2749L9.98848 19.2595L9.97148 19.6875L10.3612 19.7029L10.7509 19.7184L10.7679 19.2904L10.3782 19.2749ZM10.3612 19.7029L9.98282 19.7975L9.98782 19.8175L10.3662 19.7229L10.7445 19.6283L10.7395 19.6083L10.3612 19.7029ZM10.3662 19.7229L10.057 19.9607L10.067 19.9737L10.3762 19.7359L10.6853 19.4982L10.6753 19.4852L10.3662 19.7229ZM10.3762 19.7359L10.1501 20.0537L10.2541 20.1277L10.4802 19.8099L10.7063 19.4922L10.6023 19.4182L10.3762 19.7359ZM10.4802 19.8099L10.3797 20.1868L10.3947 20.1908L10.4952 19.8139L10.5957 19.4371L10.5807 19.4331L10.4802 19.8099ZM10.4952 19.8139L10.6185 20.1839L10.6305 20.1799L10.5072 19.8099L10.3839 19.4399L10.3719 19.4439L10.4952 19.8139ZM10.5072 19.8099L10.7333 20.1277L10.8373 20.0537L10.6112 19.7359L10.3851 19.4182L10.2811 19.4922L10.5072 19.8099ZM10.6112 19.7359L10.9232 19.9699L10.9352 19.9539L10.6232 19.7199L10.3112 19.4859L10.2992 19.5019L10.6112 19.7359ZM10.6232 19.7199L11.0028 19.8093L11.0068 19.7923L10.6272 19.7029L10.2475 19.6136L10.2435 19.6306L10.6232 19.7199ZM10.6272 19.7029L11.0169 19.6874L10.9999 19.2604L10.6102 19.2759L10.2205 19.2915L10.2375 19.7185L10.6272 19.7029ZM10.6102 19.2759L10.9885 19.1813C10.9762 19.1319 10.949 19.0608 10.8875 18.9957C10.8212 18.9255 10.7368 18.8854 10.6525 18.8725L10.5932 19.2579L10.5339 19.6434C10.4582 19.6318 10.381 19.5954 10.3204 19.5312C10.2645 19.4721 10.2415 19.4093 10.2318 19.3705L10.6102 19.2759ZM10.8582 19.1449L10.7989 18.7595L10.7859 18.7615L10.8452 19.1469L10.9044 19.5324L10.9174 19.5304L10.8582 19.1449ZM10.8452 19.1469L10.67 18.7985L10.485 18.8915L10.6602 19.2399L10.8353 19.5884L11.0203 19.4954L10.8452 19.1469ZM10.6602 19.2399L10.3844 18.9642L10.3744 18.9742L10.6502 19.2499L10.9259 19.5257L10.9359 19.5157L10.6602 19.2399ZM10.6502 19.2499L10.2739 19.1473L10.2709 19.1583L10.6472 19.2609L11.0234 19.3635L11.0264 19.3525L10.6502 19.2499ZM10.6472 19.2609L10.2575 19.2772L10.2755 19.7072L10.6652 19.6909L11.0548 19.6746L11.0368 19.2446L10.6472 19.2609ZM10.6652 19.6909L10.3052 19.841L10.3102 19.8529L10.6702 19.7029L11.0302 19.5529L11.0252 19.5409L10.6652 19.6909ZM10.6702 19.7029L10.4134 19.9964L10.4214 20.0034L10.6782 19.7099L10.935 19.4164L10.927 19.4094L10.6702 19.7029ZM10.6782 19.7099L10.5144 20.0639L10.7154 20.1569L10.8792 19.8029L11.0429 19.449L10.8419 19.356L10.6782 19.7099ZM10.8792 19.8029L10.7799 20.1801C10.833 20.1941 10.9111 20.2038 10.9996 20.1794C11.0936 20.1535 11.1673 20.0978 11.2173 20.0327L10.9082 19.7949L10.599 19.5572C10.6424 19.5008 10.7079 19.4507 10.7922 19.4275C10.8711 19.4057 10.938 19.4152 10.9784 19.4258L10.8792 19.8029ZM10.9082 19.7949L11.2832 19.9021L11.2872 19.8881L10.9122 19.7809L10.5372 19.6738L10.5332 19.6878L10.9082 19.7949ZM10.9122 19.7809L11.3016 19.7594L11.2676 19.1454L10.8782 19.1669L10.4888 19.1885L10.5228 19.8025L10.9122 19.7809ZM10.8782 19.1669L11.2539 19.0626C11.2225 18.9492 11.1313 18.8141 10.9587 18.7681L10.8582 19.1449L10.7577 19.5218C10.6937 19.5047 10.6315 19.4691 10.5821 19.4148C10.5353 19.3633 10.513 19.3094 10.5024 19.2713L10.8782 19.1669ZM10.1432 19.1469L10.3453 18.8134C10.2549 18.7586 10.1469 18.7409 10.0439 18.7638L10.1285 19.1445L10.2131 19.5252C10.1201 19.5459 10.0226 19.5299 9.94104 19.4805L10.1432 19.1469ZM10.1285 19.1445L10.0439 18.7638C9.94077 18.7867 9.85047 18.8485 9.7918 18.9364L10.1162 19.1529L10.4405 19.3695C10.3876 19.4488 10.3061 19.5046 10.2131 19.5252L10.1285 19.1445ZM10.1162 19.1529L9.75771 18.9993L9.75171 19.0133L10.1102 19.1669L10.4686 19.3206L10.4746 19.3066L10.1162 19.1529ZM10.1102 19.1669L9.72077 19.1454L9.68677 19.7594L10.0762 19.7809L10.4656 19.8025L10.4996 19.1885L10.1102 19.1669ZM10.0762 19.7809L9.68677 19.8026C9.69025 19.8653 9.70875 19.9452 9.76267 20.0214C9.81756 20.0989 9.89 20.1453 9.95623 20.1701L10.0932 19.8049L10.2301 19.4398C10.2857 19.4606 10.3499 19.501 10.3992 19.5705C10.4474 19.6386 10.4628 19.7086 10.4656 19.7593L10.0762 19.7809ZM10.0932 19.8049L10.1447 20.1915L10.1597 20.1895L10.1082 19.8029L10.0566 19.4164L10.0416 19.4184L10.0932 19.8049ZM10.1082 19.8029L10.2719 20.1569L10.4729 20.0639L10.3092 19.7099L10.1454 19.356L9.9444 19.449L10.1082 19.8029ZM10.3092 19.7099L10.5528 20.0145L10.5628 20.0065L10.3192 19.7019L10.0756 19.3974L10.0656 19.4054L10.3092 19.7099ZM10.3192 19.7019L10.6857 19.8352L10.6897 19.8242L10.3232 19.6909L9.95665 19.5577L9.95265 19.5687L10.3192 19.7019ZM10.3232 19.6909L10.7129 19.7063L10.7299 19.2763L10.3402 19.2609L9.95048 19.2455L9.93348 19.6755L10.3232 19.6909ZM10.3402 19.2609L10.7185 19.1663L10.7155 19.1543L10.3372 19.2489L9.95882 19.3435L9.96182 19.3555L10.3402 19.2609ZM10.3372 19.2489L10.6129 18.9732L10.6029 18.9632L10.3272 19.2389L10.0514 19.5147L10.0614 19.5247L10.3372 19.2489ZM10.3272 19.2389L10.5016 18.8901L10.3176 18.7981L10.1432 19.1469L9.96876 19.4958L10.1528 19.5878L10.3272 19.2389Z" fill="#EFEFEE" mask="url(#path-1-inside-1_289_1253)"/>
<path d="M16.7749 6.71777C15.0875 7.25076 12.6894 7.80463 10.0005 7.80469C7.31143 7.80469 4.91271 7.24985 3.2251 6.71777L3.06592 6.66797L2.9917 6.81641L1.93213 8.93652C1.84889 9.10261 1.80524 9.28591 1.80518 9.47168V12C1.80518 12.3168 1.93085 12.6206 2.15479 12.8447C2.37889 13.0688 2.68355 13.1953 3.00049 13.1953H17.0005C17.3173 13.1952 17.6212 13.0687 17.8452 12.8447C18.0692 12.6206 18.1948 12.3168 18.1948 12V9.47168C18.1946 9.28628 18.1519 9.10326 18.0688 8.9375L16.9341 6.66797L16.7749 6.71777ZM5.50049 9.19531C5.84631 9.19542 6.17775 9.33269 6.42236 9.57715C6.6671 9.82188 6.80518 10.1539 6.80518 10.5C6.80518 10.8461 6.6671 11.1781 6.42236 11.4229C6.17775 11.6673 5.84631 11.8046 5.50049 11.8047C5.15448 11.8047 4.82235 11.6675 4.57764 11.4229C4.3329 11.1781 4.19482 10.8461 4.19482 10.5C4.19482 10.1539 4.3329 9.82188 4.57764 9.57715C4.82235 9.33254 5.15448 9.19531 5.50049 9.19531ZM14.5005 9.19531C14.8463 9.19542 15.1778 9.33269 15.4224 9.57715C15.6671 9.82188 15.8052 10.1539 15.8052 10.5C15.8052 10.8461 15.6671 11.1781 15.4224 11.4229C15.1778 11.6673 14.8463 11.8046 14.5005 11.8047C14.1545 11.8047 13.8224 11.6675 13.5776 11.4229C13.3329 11.1781 13.1948 10.8461 13.1948 10.5C13.1948 10.1539 13.3329 9.82188 13.5776 9.57715C13.8224 9.33254 14.1545 9.19531 14.5005 9.19531ZM6.23584 1.80469C6.01406 1.80483 5.79654 1.86675 5.60791 1.9834C5.46634 2.07097 5.34505 2.18702 5.25146 2.32324L5.16748 2.46582L3.89795 5.00293L3.79346 5.20996L4.01611 5.27637C5.57648 5.74508 7.68224 6.19531 10.0005 6.19531C12.3185 6.19526 14.4236 5.74505 15.9829 5.27637L16.2056 5.20996L16.1011 5.00293L14.8325 2.46582C14.7333 2.26736 14.5808 2.10011 14.3921 1.9834C14.2035 1.86677 13.9859 1.80481 13.7642 1.80469H6.23584ZM1.19482 14.1484L1.13037 14.0908C0.555878 13.5762 0.194824 12.8302 0.194824 12V9.47168C0.195061 9.03654 0.297013 8.60694 0.491699 8.21777L1.44775 6.30371L1.5415 6.11719L1.34717 6.03711C1.10895 5.93853 0.873441 5.83344 0.641113 5.72168H0.64209C0.547352 5.67468 0.462592 5.60898 0.393066 5.5293C0.32348 5.44944 0.269492 5.35629 0.23584 5.25586C0.202235 5.15548 0.189357 5.04895 0.196777 4.94336C0.204247 4.83784 0.231504 4.73426 0.278809 4.63965C0.376567 4.44985 0.545762 4.30625 0.748535 4.23926C0.951926 4.17209 1.17374 4.1882 1.36572 4.2832L1.36768 4.28418C1.60763 4.39941 1.85138 4.50619 2.09814 4.60449L2.26416 4.6709L2.34424 4.50977L3.72705 1.74512C3.95996 1.27946 4.31838 0.888045 4.76123 0.614258C5.20423 0.340499 5.71508 0.195375 6.23584 0.195312H13.7642C14.285 0.195348 14.7957 0.340473 15.2388 0.614258C15.6817 0.888048 16.04 1.27942 16.2729 1.74512L17.6558 4.50977L17.7368 4.67188L17.9038 4.60352C18.0257 4.55358 18.1489 4.50258 18.272 4.44922L18.6401 4.2793C18.8312 4.18386 19.0528 4.16869 19.2554 4.23633C19.4577 4.30395 19.6248 4.44892 19.7202 4.63965C19.8156 4.83069 19.8317 5.05231 19.7642 5.25488C19.6965 5.4575 19.551 5.62526 19.3599 5.7207C19.1167 5.84179 18.9408 5.92073 18.8267 5.96875C18.7696 5.99276 18.7274 6.00844 18.7007 6.01855C18.6877 6.02348 18.6784 6.02715 18.6724 6.0293C18.6694 6.03037 18.6667 6.03182 18.6655 6.03223H18.6646L18.4526 6.10352L18.5522 6.30371L19.5083 8.2168V8.21777C19.7035 8.60739 19.8051 9.03603 19.8052 9.47168V12L19.8013 12.1475C19.7831 12.4915 19.702 12.8302 19.561 13.1455C19.3999 13.5057 19.1637 13.8278 18.8696 14.0908L18.8052 14.1484V15.5C18.8052 15.8461 18.6671 16.1781 18.4224 16.4229C18.1778 16.6673 17.8463 16.8046 17.5005 16.8047C17.1545 16.8047 16.8224 16.6675 16.5776 16.4229C16.3329 16.1781 16.1948 15.8461 16.1948 15.5V14.8047H3.80518V15.5C3.80518 15.8461 3.6671 16.1781 3.42236 16.4229C3.17775 16.6673 2.84631 16.8046 2.50049 16.8047C2.15448 16.8047 1.82235 16.6675 1.57764 16.4229C1.3329 16.1781 1.19482 15.8461 1.19482 15.5V14.1484Z" fill="black" stroke="#EFEFEE" stroke-width="0.39"/>
</svg>
