<svg width="20" height="20" viewBox="0 0 20 20" fill="none" xmlns="http://www.w3.org/2000/svg">
<path d="M10.0002 2.08331C8.43439 2.08331 6.90379 2.54762 5.6019 3.41751C4.30001 4.28741 3.28531 5.52382 2.68612 6.9704C2.08692 8.41698 1.93015 10.0088 2.23561 11.5444C2.54108 13.0801 3.29507 14.4907 4.40223 15.5979C5.5094 16.7051 6.92001 17.4591 8.4557 17.7645C9.99138 18.07 11.5832 17.9132 13.0297 17.314C14.4763 16.7148 15.7127 15.7001 16.5826 14.3982C17.4525 13.0964 17.9168 11.5657 17.9168 9.99998C17.9168 8.82831 17.6627 7.71665 17.2068 6.71748C17.1447 6.56781 17.1431 6.39985 17.2024 6.24902C17.2617 6.09819 17.3772 5.9763 17.5247 5.90905C17.6722 5.84181 17.84 5.83448 17.9927 5.8886C18.1455 5.94272 18.2713 6.05407 18.3435 6.19915C18.8735 7.35748 19.1668 8.64498 19.1668 9.99998C19.1668 15.0625 15.0627 19.1666 10.0002 19.1666C4.93766 19.1666 0.833496 15.0625 0.833496 9.99998C0.833496 4.93748 4.93766 0.833313 10.0002 0.833313C11.3552 0.833313 12.6418 1.12748 13.801 1.65665C13.8785 1.68882 13.9486 1.73626 14.0074 1.79613C14.0661 1.85599 14.1122 1.92707 14.1429 2.00513C14.1736 2.08318 14.1882 2.16662 14.186 2.25046C14.1838 2.3343 14.1647 2.41683 14.1299 2.49315C14.0951 2.56946 14.0453 2.63798 13.9835 2.69464C13.9216 2.7513 13.849 2.79494 13.77 2.82295C13.6909 2.85096 13.607 2.86277 13.5233 2.85768C13.4396 2.85258 13.3577 2.8307 13.2827 2.79331C12.2519 2.32462 11.1325 2.0825 10.0002 2.08331ZM17.5252 2.47498C17.6422 2.59217 17.7079 2.75102 17.7079 2.91665C17.7079 3.08227 17.6422 3.24113 17.5252 3.35831L12.1543 8.72998C12.4635 9.25413 12.5708 9.87303 12.4563 10.4707C12.3417 11.0683 12.0131 11.6036 11.532 11.9763C11.051 12.349 10.4505 12.5334 9.84324 12.495C9.23593 12.4566 8.66348 12.1981 8.23319 11.7678C7.80291 11.3375 7.54433 10.765 7.50594 10.1577C7.46755 9.55043 7.65198 8.94997 8.02466 8.46893C8.39734 7.98788 8.93267 7.65928 9.53031 7.54472C10.1279 7.43016 10.7469 7.53751 11.271 7.84665L16.6418 2.47498C16.759 2.35794 16.9179 2.2922 17.0835 2.2922C17.2491 2.2922 17.408 2.35794 17.5252 2.47498ZM10.0002 8.74998C9.66864 8.74998 9.3507 8.88168 9.11628 9.1161C8.88186 9.35052 8.75016 9.66846 8.75016 9.99998C8.75016 10.3315 8.88186 10.6494 9.11628 10.8839C9.3507 11.1183 9.66864 11.25 10.0002 11.25C10.3317 11.25 10.6496 11.1183 10.884 10.8839C11.1185 10.6494 11.2502 10.3315 11.2502 9.99998C11.2502 9.66846 11.1185 9.35052 10.884 9.1161C10.6496 8.88168 10.3317 8.74998 10.0002 8.74998Z" fill="black"/>
</svg>
