<svg width="30" height="20" viewBox="0 0 30 20" fill="none" xmlns="http://www.w3.org/2000/svg">
<path d="M8.84812 9.1C10.2399 9.1 11.3681 7.97175 11.3681 6.58C11.3681 5.18824 10.2399 4.06 8.84812 4.06C7.45637 4.06 6.32812 5.18824 6.32812 6.58C6.32812 7.97175 7.45637 9.1 8.84812 9.1Z" stroke="#A1A1A1" stroke-width="1.4" stroke-miterlimit="10" stroke-linecap="round" stroke-linejoin="round"/>
<path d="M14.2482 15.94C14.4282 15.4 14.5482 14.74 14.5482 14.14C14.5482 11.02 12.0282 10.36 8.84819 10.36C5.72819 10.36 3.14819 11.02 3.14819 14.14C3.14819 14.74 3.26819 15.4 3.44819 15.94H14.2482Z" stroke="#A1A1A1" stroke-width="1.4" stroke-miterlimit="10" stroke-linecap="round" stroke-linejoin="round"/>
<path d="M27.0282 18.88H2.72822C1.70822 18.88 0.928223 18.1 0.928223 17.08V2.92C0.928223 1.9 1.70822 1.12 2.72822 1.12H27.0282C28.0482 1.12 28.8282 1.9 28.8282 2.92V17.08C28.8282 18.1 27.9882 18.88 27.0282 18.88Z" stroke="#A1A1A1" stroke-width="1.4" stroke-miterlimit="10" stroke-linecap="round" stroke-linejoin="round"/>
<path d="M17.4282 4.35999H25.9482" stroke="#A1A1A1" stroke-width="1.4" stroke-miterlimit="10" stroke-linecap="round" stroke-linejoin="round"/>
<path d="M17.4282 7.17999H23.7282" stroke="#A1A1A1" stroke-width="1.4" stroke-miterlimit="10" stroke-linecap="round" stroke-linejoin="round"/>
<path d="M24.0881 9.99998H25.9481" stroke="#A1A1A1" stroke-width="1.4" stroke-miterlimit="10" stroke-linecap="round" stroke-linejoin="round"/>
<path d="M17.4282 9.99998H22.1682" stroke="#A1A1A1" stroke-width="1.4" stroke-miterlimit="10" stroke-linecap="round" stroke-linejoin="round"/>
<path d="M20.3081 12.82H25.9481" stroke="#A1A1A1" stroke-width="1.4" stroke-miterlimit="10" stroke-linecap="round" stroke-linejoin="round"/>
<path d="M17.4282 12.82H18.3282" stroke="#A1A1A1" stroke-width="1.4" stroke-miterlimit="10" stroke-linecap="round" stroke-linejoin="round"/>
<path d="M17.4282 15.64H23.1282" stroke="#A1A1A1" stroke-width="1.4" stroke-miterlimit="10" stroke-linecap="round" stroke-linejoin="round"/>
</svg>
