<svg width="22" height="18" viewBox="0 0 22 18" fill="none" xmlns="http://www.w3.org/2000/svg">
<path d="M18 8.142C17.6681 8.09437 17.3345 8.05868 17 8.035M5 9.965C4.65867 9.941 4.32533 9.90533 4 9.858M13.5 9C13.5 9.66304 13.2366 10.2989 12.7678 10.7678C12.2989 11.2366 11.663 11.5 11 11.5C10.337 11.5 9.70107 11.2366 9.23223 10.7678C8.76339 10.2989 8.5 9.66304 8.5 9C8.5 8.33696 8.76339 7.70107 9.23223 7.23223C9.70107 6.76339 10.337 6.5 11 6.5C11.663 6.5 12.2989 6.76339 12.7678 7.23223C13.2366 7.70107 13.5 8.33696 13.5 9Z" stroke="black" stroke-linecap="round" stroke-linejoin="round"/>
<path d="M11 16.5C9.668 17.122 7.917 17.5 6 17.5C4.934 17.5 3.92 17.383 3 17.173C1.5 16.829 1 15.926 1 14.386V3.614C1 2.629 2.04 1.953 3 2.173C3.92 2.383 4.934 2.5 6 2.5C7.917 2.5 9.668 2.122 11 1.5C12.332 0.878 14.083 0.5 16 0.5C17.066 0.5 18.08 0.617 19 0.827C20.582 1.19 21 2.12 21 3.614V14.386C21 15.371 19.96 16.047 19 15.827C18.08 15.617 17.066 15.5 16 15.5C14.083 15.5 12.332 15.878 11 16.5Z" stroke="black" stroke-linecap="round" stroke-linejoin="round"/>
</svg>
