<svg width="30" height="20" viewBox="0 0 30 20" fill="none" xmlns="http://www.w3.org/2000/svg">
<path d="M25.9091 0H3.18182C1.42739 0 0 1.42739 0 3.18182V16.8182C0 18.5726 1.42739 20 3.18182 20H25.9091C27.6635 20 29.0909 18.5726 29.0909 16.8182V3.18182C29.0909 1.42739 27.6635 0 25.9091 0ZM3.18182 1.81818H14.5455H25.9091C26.661 1.81818 27.2727 2.42994 27.2727 3.18182V5H1.81818V3.18182C1.81818 2.42994 2.42994 1.81818 3.18182 1.81818ZM25.9091 18.1818H14.5455H3.18182C2.42994 18.1818 1.81818 17.5701 1.81818 16.8182V6.81818H27.2727V16.8182C27.2727 17.5701 26.661 18.1818 25.9091 18.1818Z" fill="#A1A1A1"/>
<path d="M7.39704 15.4545H6.48795C5.9859 15.4545 5.57886 15.0475 5.57886 14.5454V13.6364C5.57886 13.1343 5.9859 12.7273 6.48795 12.7273H7.39704C7.89908 12.7273 8.30613 13.1343 8.30613 13.6364V14.5454C8.30613 15.0475 7.89908 15.4545 7.39704 15.4545Z" fill="#A1A1A1"/>
</svg>
