<svg width="28" height="28" viewBox="0 0 28 28" fill="none" xmlns="http://www.w3.org/2000/svg">
<path fill-rule="evenodd" clip-rule="evenodd" d="M0.722656 27.5938H12.9102C13.0345 27.5938 13.1537 27.5444 13.2416 27.4565C13.3295 27.3685 13.3789 27.2493 13.3789 27.125C13.3789 27.0007 13.3295 26.8815 13.2416 26.7935C13.1537 26.7056 13.0345 26.6562 12.9102 26.6562H1.19141V5.09375H4.47266C4.53422 5.09379 4.59519 5.08169 4.65208 5.05814C4.70897 5.0346 4.76066 5.00007 4.80419 4.95654C4.84773 4.913 4.88225 4.86131 4.9058 4.80443C4.92934 4.74754 4.94144 4.68657 4.94141 4.625V1.34375H20.8789V8.375C20.8789 8.49932 20.9283 8.61855 21.0162 8.70646C21.1041 8.79436 21.2233 8.84375 21.3477 8.84375C21.472 8.84375 21.5912 8.79436 21.6791 8.70646C21.767 8.61855 21.8164 8.49932 21.8164 8.375V0.875C21.8164 0.813433 21.8043 0.752462 21.7808 0.695575C21.7573 0.638687 21.7227 0.586999 21.6792 0.543464C21.6357 0.499929 21.584 0.465403 21.5271 0.441859C21.4702 0.418315 21.4092 0.406214 21.3477 0.40625H4.47266C4.4111 0.40624 4.35015 0.418363 4.29328 0.441927C4.23641 0.46549 4.18475 0.500031 4.14124 0.543575L0.391241 4.29358C0.347696 4.33709 0.313153 4.38875 0.289588 4.44562C0.266023 4.50249 0.253898 4.56344 0.253906 4.625V27.125C0.253871 27.1866 0.265971 27.2475 0.289515 27.3044C0.313059 27.3613 0.347586 27.413 0.39112 27.4565C0.434655 27.5001 0.486344 27.5346 0.543231 27.5581C0.600119 27.5817 0.661089 27.5938 0.722656 27.5938ZM1.85422 4.15625L4.00391 2.00656V4.15625H1.85422Z" fill="#A1A1A1"/>
<path fill-rule="evenodd" clip-rule="evenodd" d="M3.53516 13.5312H14.7852C14.9095 13.5312 15.0287 13.4819 15.1166 13.394C15.2045 13.306 15.2539 13.1868 15.2539 13.0625C15.2539 12.9382 15.2045 12.819 15.1166 12.731C15.0287 12.6431 14.9095 12.5938 14.7852 12.5938H3.53516C3.41084 12.5938 3.29161 12.6431 3.2037 12.731C3.11579 12.819 3.06641 12.9382 3.06641 13.0625C3.06641 13.1868 3.11579 13.306 3.2037 13.394C3.29161 13.4819 3.41084 13.5312 3.53516 13.5312Z" fill="#A1A1A1"/>
<path fill-rule="evenodd" clip-rule="evenodd" d="M18.0664 14C18.0676 14.5287 18.196 15.0494 18.4408 15.518C18.6855 15.9866 19.0395 16.3895 19.4727 16.6926V21.9688H18.0664C17.9421 21.9688 17.8229 22.0181 17.7349 22.1061C17.647 22.194 17.5977 22.3132 17.5977 22.4375C17.5977 22.5618 17.647 22.6811 17.7349 22.769C17.8229 22.8569 17.9421 22.9063 18.0664 22.9063H18.5352V23.8438H17.5977C17.2898 23.843 16.9848 23.9033 16.7003 24.0211C16.4159 24.139 16.1577 24.3121 15.9406 24.5304C15.5025 24.9709 15.2558 25.5663 15.2539 26.1875V27.125C15.2539 27.1866 15.266 27.2475 15.2895 27.3044C15.3131 27.3613 15.3476 27.413 15.3911 27.4565C15.4347 27.5001 15.4863 27.5346 15.5432 27.5581C15.6001 27.5817 15.6611 27.5938 15.7227 27.5938H19.4727C19.597 27.5938 19.7162 27.5444 19.8041 27.4565C19.892 27.3686 19.9414 27.2493 19.9414 27.125C19.9414 27.0007 19.892 26.8815 19.8041 26.7936C19.7162 26.7056 19.597 26.6563 19.4727 26.6563H16.1914V26.1875C16.1915 25.8146 16.3397 25.4569 16.6034 25.1932C16.8671 24.9295 17.2247 24.7814 17.5977 24.7813H25.0977C25.2825 24.7808 25.4655 24.8169 25.6363 24.8876C25.807 24.9584 25.962 25.0622 26.0923 25.1932C26.355 25.4576 26.5029 25.8148 26.5039 26.1875V26.6563H23.2227C23.0983 26.6563 22.9791 26.7056 22.8912 26.7936C22.8033 26.8815 22.7539 27.0007 22.7539 27.125C22.7539 27.2493 22.8033 27.3686 22.8912 27.4565C22.9791 27.5444 23.0983 27.5938 23.2227 27.5938H26.9727C27.0342 27.5938 27.0952 27.5817 27.1521 27.5581C27.209 27.5346 27.2607 27.5001 27.3042 27.4565C27.3477 27.413 27.3823 27.3613 27.4058 27.3044C27.4293 27.2475 27.4414 27.1866 27.4414 27.125V26.1875C27.4398 25.5663 27.1932 24.9709 26.7552 24.5304C26.5381 24.312 26.2797 24.1389 25.9952 24.0211C25.7107 23.9032 25.4056 23.8429 25.0977 23.8438H24.1602V22.9063H24.6289C24.7532 22.9063 24.8725 22.8569 24.9604 22.769C25.0483 22.6811 25.0977 22.5618 25.0977 22.4375C25.0977 22.3132 25.0483 22.194 24.9604 22.1061C24.8725 22.0181 24.7532 21.9688 24.6289 21.9688H23.2227V16.6926C23.6857 16.3702 24.0577 15.9338 24.3028 15.4257C24.548 14.9175 24.658 14.3547 24.6222 13.7917C24.5863 13.2286 24.4059 12.6843 24.0984 12.2113C23.7908 11.7383 23.3665 11.3526 22.8664 11.0914C22.3663 10.8303 21.8073 10.7025 21.2434 10.7204C20.6795 10.7383 20.1297 10.9014 19.6472 11.1937C19.1646 11.4861 18.7657 11.898 18.4888 12.3896C18.2119 12.8811 18.0664 13.4358 18.0664 14ZM23.2227 23.8438H19.4727V22.9063H23.2227V23.8438ZM23.6914 14C23.6904 14.4113 23.5817 14.8152 23.376 15.1714C23.1703 15.5277 22.8748 15.8237 22.5191 16.0302C22.448 16.0714 22.3889 16.1305 22.3479 16.2017C22.3068 16.2729 22.2852 16.3536 22.2851 16.4358V21.9688H20.4101V16.4358C20.4101 16.3536 20.3885 16.2729 20.3474 16.2017C20.3064 16.1305 20.2473 16.0714 20.1762 16.0302C19.8198 15.8246 19.5239 15.5287 19.3181 15.1725C19.1123 14.8162 19.0039 14.412 19.0038 14.0006C19.0037 13.5891 19.1119 13.1849 19.3176 12.8285C19.5232 12.4722 19.8191 12.1762 20.1754 11.9704C20.5317 11.7647 20.9359 11.6563 21.3473 11.6563C21.7588 11.6562 22.163 11.7645 22.5193 11.9702C22.8757 12.1759 23.1716 12.4717 23.3773 12.828C23.5831 13.1844 23.6914 13.5886 23.6914 14Z" fill="#A1A1A1"/>
<path d="M21.3481 27.5938C21.607 27.5938 21.8169 27.3839 21.8169 27.125C21.8169 26.8661 21.607 26.6562 21.3481 26.6562C21.0893 26.6562 20.8794 26.8661 20.8794 27.125C20.8794 27.3839 21.0893 27.5938 21.3481 27.5938Z" fill="#A1A1A1"/>
<path fill-rule="evenodd" clip-rule="evenodd" d="M5.30305 22.1303C5.31178 22.6115 5.50717 23.0705 5.84796 23.4104C6.18876 23.7502 6.64829 23.9444 7.12953 23.9517C7.26771 23.9519 7.40449 23.9793 7.53206 24.0324C7.65963 24.0855 7.77548 24.1633 7.87297 24.2612C8.21892 24.594 8.68009 24.7803 9.16016 24.7812C9.64273 24.7826 10.1066 24.5945 10.452 24.2575C10.6507 24.062 10.9179 23.9518 11.1968 23.9504C11.678 23.9421 12.1372 23.7469 12.4771 23.4061C12.8171 23.0653 13.0111 22.6056 13.0182 22.1243C13.0183 21.9862 13.0457 21.8495 13.0988 21.722C13.1519 21.5945 13.2297 21.4788 13.3276 21.3814C13.6618 21.0351 13.8483 20.5725 13.8477 20.0912C13.8471 19.61 13.6595 19.1478 13.3244 18.8023C13.2269 18.7044 13.1495 18.5881 13.0969 18.4602C13.0443 18.3324 13.0174 18.1954 13.0177 18.0571C13.009 17.5759 12.8136 17.1169 12.4728 16.7771C12.132 16.4372 11.6725 16.2431 11.1912 16.2357C10.9125 16.2339 10.6455 16.1228 10.4478 15.9262C10.0956 15.6037 9.63515 15.4251 9.15757 15.4258C8.67998 15.4265 8.22005 15.6064 7.86875 15.9299C7.67191 16.1261 7.40552 16.2365 7.12763 16.2371H7.12397C6.64271 16.2454 6.18355 16.4406 5.84363 16.7814C5.50371 17.1222 5.30969 17.5818 5.30259 18.0631C5.30246 18.2012 5.27505 18.3379 5.22195 18.4654C5.16885 18.5929 5.09109 18.7087 4.99314 18.806C4.65872 19.1522 4.47206 19.6149 4.47266 20.0962C4.47326 20.5776 4.66106 21.0398 4.99635 21.3851C5.09401 21.483 5.17137 21.5992 5.224 21.7271C5.27663 21.855 5.30349 21.992 5.30305 22.1303ZM5.66148 19.4634C6.03079 19.0943 6.23884 18.5939 6.24009 18.0718C6.24483 17.8355 6.34076 17.6101 6.5078 17.4429C6.67485 17.2757 6.90008 17.1796 7.13639 17.1746C7.65717 17.1726 8.15626 16.9658 8.5257 16.5987C8.69952 16.4432 8.92439 16.3569 9.15763 16.3562C9.39088 16.3556 9.61625 16.4405 9.79096 16.5951C10.1601 16.9639 10.6602 17.1717 11.1821 17.1732C11.4178 17.1781 11.6426 17.2736 11.8098 17.4398C11.9771 17.606 12.0739 17.8302 12.0802 18.0659C12.0805 18.5881 12.2873 19.089 12.6556 19.4593C12.8184 19.6294 12.9095 19.8556 12.9101 20.091C12.9108 20.3264 12.821 20.553 12.6593 20.7241C12.29 21.0932 12.0819 21.5936 12.0807 22.1157C12.0759 22.3515 11.9805 22.5763 11.8141 22.7434C11.6477 22.9105 11.4233 23.0071 11.1876 23.0129C10.6657 23.0141 10.1654 23.221 9.79508 23.5887C9.62106 23.7439 9.39626 23.8299 9.16314 23.8306C8.93002 23.8312 8.70473 23.7465 8.52982 23.5924C8.16063 23.2236 7.66053 23.0157 7.13867 23.0142C6.90296 23.0093 6.67817 22.9139 6.51095 22.7477C6.34373 22.5815 6.2469 22.3573 6.24055 22.1216C6.24037 21.5994 6.0335 21.0984 5.66514 20.7282C5.50215 20.5582 5.41085 20.332 5.41017 20.0965C5.40949 19.861 5.49948 19.6343 5.66148 19.4634Z" fill="#A1A1A1"/>
<path fill-rule="evenodd" clip-rule="evenodd" d="M3.53516 10.7188H14.7852C14.9095 10.7188 15.0287 10.6694 15.1166 10.5815C15.2045 10.4935 15.2539 10.3743 15.2539 10.25C15.2539 10.1257 15.2045 10.0065 15.1166 9.91854C15.0287 9.83064 14.9095 9.78125 14.7852 9.78125H3.53516C3.41084 9.78125 3.29161 9.83064 3.2037 9.91854C3.11579 10.0065 3.06641 10.1257 3.06641 10.25C3.06641 10.3743 3.11579 10.4935 3.2037 10.5815C3.29161 10.6694 3.41084 10.7188 3.53516 10.7188Z" fill="#A1A1A1"/>
<path fill-rule="evenodd" clip-rule="evenodd" d="M3.06641 7.4375C3.06637 7.49907 3.07847 7.56004 3.10202 7.61693C3.12556 7.67381 3.16009 7.7255 3.20362 7.76904C3.24716 7.81257 3.29884 7.8471 3.35573 7.87064C3.41262 7.89419 3.47359 7.90629 3.53516 7.90625H18.5352C18.6595 7.90625 18.7787 7.85686 18.8666 7.76896C18.9545 7.68105 19.0039 7.56182 19.0039 7.4375C19.0039 7.31318 18.9545 7.19395 18.8666 7.10604C18.7787 7.01814 18.6595 6.96875 18.5352 6.96875H3.53516C3.47359 6.96871 3.41262 6.98081 3.35573 7.00436C3.29884 7.0279 3.24716 7.06243 3.20362 7.10596C3.16009 7.1495 3.12556 7.20119 3.10202 7.25807C3.07847 7.31496 3.06637 7.37593 3.06641 7.4375Z" fill="#A1A1A1"/>
<path fill-rule="evenodd" clip-rule="evenodd" d="M18.5352 5.09375C18.6595 5.09375 18.7787 5.04436 18.8666 4.95646C18.9545 4.86855 19.0039 4.74932 19.0039 4.625C19.0039 4.50068 18.9545 4.38145 18.8666 4.29354C18.7787 4.20564 18.6595 4.15625 18.5352 4.15625H7.28516C7.16084 4.15625 7.04161 4.20564 6.9537 4.29354C6.86579 4.38145 6.81641 4.50068 6.81641 4.625C6.81641 4.74932 6.86579 4.86855 6.9537 4.95646C7.04161 5.04436 7.16084 5.09375 7.28516 5.09375H18.5352Z" fill="#A1A1A1"/>
</svg>
