<svg width="15" height="16" viewBox="0 0 15 16" fill="none" xmlns="http://www.w3.org/2000/svg">
<path fill-rule="evenodd" clip-rule="evenodd" d="M7.6001 5.50006C6.93706 5.50006 6.30117 5.76345 5.83233 6.23229C5.36349 6.70114 5.1001 7.33702 5.1001 8.00006C5.1001 8.6631 5.36349 9.29899 5.83233 9.76783C6.30117 10.2367 6.93706 10.5001 7.6001 10.5001C8.26314 10.5001 8.89902 10.2367 9.36786 9.76783C9.83671 9.29899 10.1001 8.6631 10.1001 8.00006C10.1001 7.33702 9.83671 6.70114 9.36786 6.23229C8.89902 5.76345 8.26314 5.50006 7.6001 5.50006ZM6.1001 8.00006C6.1001 7.60224 6.25813 7.22071 6.53944 6.9394C6.82074 6.6581 7.20227 6.50006 7.6001 6.50006C7.99792 6.50006 8.37945 6.6581 8.66076 6.9394C8.94206 7.22071 9.1001 7.60224 9.1001 8.00006C9.1001 8.39789 8.94206 8.77942 8.66076 9.06072C8.37945 9.34203 7.99792 9.50006 7.6001 9.50006C7.20227 9.50006 6.82074 9.34203 6.53944 9.06072C6.25813 8.77942 6.1001 8.39789 6.1001 8.00006Z" fill="black"/>
<path fill-rule="evenodd" clip-rule="evenodd" d="M7.58344 0.833313C7.28678 0.833313 7.03944 0.833313 6.83678 0.846646C6.62958 0.854991 6.42523 0.897799 6.23211 0.973313C6.00961 1.06537 5.80743 1.20036 5.6371 1.37057C5.46678 1.54078 5.33165 1.74287 5.23944 1.96531C5.14278 2.19865 5.11678 2.44531 5.10611 2.71331C5.10492 2.8113 5.07892 2.90739 5.03054 2.99261C4.98216 3.07783 4.91297 3.1494 4.82944 3.20065C4.74333 3.24753 4.64673 3.27181 4.54868 3.27123C4.45063 3.27065 4.35433 3.24521 4.26878 3.19731C4.03144 3.07198 3.80478 2.97131 3.55411 2.93798C3.31541 2.90658 3.07286 2.92251 2.84031 2.98485C2.60776 3.04719 2.38977 3.15472 2.19878 3.30131C2.03704 3.43096 1.89803 3.58665 1.78744 3.76198C1.67411 3.93131 1.55011 4.14531 1.40211 4.40198L1.38544 4.43131C1.23678 4.68798 1.11344 4.90198 1.02411 5.08465C0.930777 5.27531 0.857444 5.46331 0.830777 5.67131C0.767177 6.15331 0.89763 6.64083 1.19344 7.02665C1.34744 7.22731 1.54811 7.37331 1.77478 7.51598C1.8592 7.56604 1.92954 7.6367 1.97921 7.72135C2.02888 7.80599 2.05626 7.90187 2.05878 7.99998C2.05626 8.09809 2.02888 8.19396 1.97921 8.27861C1.92954 8.36326 1.8592 8.43392 1.77478 8.48398C1.54811 8.62665 1.34811 8.77265 1.19344 8.97331C1.04685 9.1643 0.93932 9.38229 0.876979 9.61484C0.814638 9.84739 0.798712 10.0899 0.83011 10.3286C0.857444 10.5366 0.93011 10.7246 1.02344 10.9153C1.11344 11.098 1.23678 11.312 1.38544 11.5686L1.40211 11.598C1.55011 11.8546 1.67411 12.0686 1.78744 12.238C1.90544 12.4133 2.03211 12.5713 2.19878 12.698C2.38972 12.8447 2.60769 12.9523 2.84024 13.0148C3.07279 13.0773 3.31536 13.0933 3.55411 13.062C3.80478 13.0286 4.03144 12.9286 4.26878 12.8026C4.35425 12.7549 4.45043 12.7295 4.54835 12.7289C4.64627 12.7283 4.74274 12.7525 4.82878 12.7993C4.91299 12.8499 4.98278 12.9213 5.03146 13.0067C5.08014 13.092 5.10608 13.1884 5.10678 13.2866C5.11678 13.5546 5.14278 13.8013 5.24011 14.0346C5.33217 14.2571 5.46716 14.4593 5.63737 14.6297C5.80758 14.8 6.00967 14.9351 6.23211 15.0273C6.42544 15.1073 6.62544 15.1386 6.83678 15.1526C7.03944 15.1666 7.28678 15.1666 7.58344 15.1666H7.61678C7.91344 15.1666 8.16078 15.1666 8.36344 15.1533C8.57544 15.1386 8.77478 15.1073 8.96811 15.0266C9.19061 14.9346 9.3928 14.7996 9.56312 14.6294C9.73344 14.4592 9.86857 14.2571 9.96078 14.0346C10.0574 13.8013 10.0834 13.5546 10.0941 13.2866C10.0952 13.1885 10.1211 13.0923 10.1695 13.007C10.2179 12.9216 10.2872 12.8499 10.3708 12.7986C10.457 12.7519 10.5536 12.7277 10.6516 12.7284C10.7497 12.7291 10.8459 12.7546 10.9314 12.8026C11.1688 12.928 11.3954 13.0286 11.6461 13.0613C12.1281 13.1249 12.6156 12.9945 13.0014 12.6986C13.1681 12.5706 13.2948 12.4133 13.4128 12.238C13.5261 12.0686 13.6501 11.8546 13.7981 11.598L13.8148 11.5686C13.9634 11.312 14.0868 11.098 14.1761 10.9153C14.2694 10.7246 14.3428 10.536 14.3694 10.3286C14.433 9.84665 14.3026 9.35913 14.0068 8.97331C13.8528 8.77265 13.6521 8.62665 13.4254 8.48398C13.341 8.43392 13.2707 8.36326 13.221 8.27861C13.1713 8.19396 13.144 8.09809 13.1414 7.99998C13.1414 7.81465 13.2428 7.63065 13.4254 7.51598C13.6521 7.37331 13.8521 7.22731 14.0068 7.02665C14.1534 6.83566 14.2609 6.61766 14.3232 6.38512C14.3856 6.15257 14.4015 5.91002 14.3701 5.67131C14.3387 5.46638 14.2734 5.26811 14.1768 5.08465C14.0629 4.86316 13.9422 4.64528 13.8148 4.43131L13.7981 4.40198C13.6763 4.1847 13.5478 3.97126 13.4128 3.76198C13.3021 3.58689 13.1631 3.43143 13.0014 3.30198C12.8105 3.15527 12.5925 3.04762 12.36 2.98516C12.1274 2.92271 11.8849 2.90667 11.6461 2.93798C11.3954 2.97131 11.1688 3.07131 10.9314 3.19731C10.846 3.2451 10.7498 3.27046 10.6519 3.27104C10.554 3.27163 10.4575 3.24741 10.3714 3.20065C10.2877 3.14956 10.2182 3.07806 10.1696 2.99283C10.121 2.9076 10.0948 2.81143 10.0934 2.71331C10.0834 2.44531 10.0574 2.19865 9.96011 1.96531C9.86805 1.74281 9.73306 1.54063 9.56285 1.3703C9.39264 1.19998 9.19055 1.06486 8.96811 0.972646C8.77478 0.892646 8.57478 0.861313 8.36344 0.847313C8.16078 0.833313 7.91344 0.833313 7.61678 0.833313H7.58344ZM6.61478 1.89665C6.66611 1.87531 6.74411 1.85598 6.90478 1.84465C7.06944 1.83331 7.28278 1.83331 7.60011 1.83331C7.91744 1.83331 8.13078 1.83331 8.29544 1.84465C8.45611 1.85598 8.53411 1.87531 8.58544 1.89665C8.79011 1.98131 8.95211 2.14331 9.03678 2.34798C9.06344 2.41198 9.08544 2.51265 9.09411 2.75065C9.11411 3.27865 9.38678 3.78731 9.87078 4.06665C10.3548 4.34598 10.9314 4.32798 11.3988 4.08131C11.6094 3.96998 11.7074 3.93865 11.7768 3.92998C11.9958 3.90104 12.2174 3.96027 12.3928 4.09465C12.4368 4.12865 12.4928 4.18665 12.5828 4.31998C12.6754 4.45731 12.7821 4.64198 12.9408 4.91665C13.0994 5.19131 13.2054 5.37665 13.2781 5.52465C13.3494 5.66931 13.3714 5.74665 13.3781 5.80198C13.4071 6.02102 13.3478 6.24259 13.2134 6.41798C13.1708 6.47331 13.0948 6.54265 12.8934 6.66931C12.4454 6.95065 12.1414 7.44131 12.1414 7.99998C12.1414 8.55865 12.4454 9.04931 12.8934 9.33065C13.0948 9.45731 13.1708 9.52665 13.2134 9.58198C13.3481 9.75731 13.4068 9.97865 13.3781 10.198C13.3714 10.2533 13.3488 10.3313 13.2781 10.4753C13.2054 10.624 13.0994 10.8086 12.9408 11.0833C12.7821 11.358 12.6748 11.5426 12.5828 11.68C12.4928 11.8133 12.4368 11.8713 12.3928 11.9053C12.2174 12.0397 11.9958 12.0989 11.7768 12.07C11.7074 12.0613 11.6101 12.03 11.3988 11.9186C10.9321 11.672 10.3548 11.6533 9.87078 11.9326C9.38678 12.212 9.11411 12.7213 9.09411 13.2493C9.08544 13.4873 9.06344 13.588 9.03678 13.652C8.9949 13.7532 8.93348 13.8451 8.85604 13.9226C8.77859 14 8.68664 14.0614 8.58544 14.1033C8.53411 14.1246 8.45611 14.144 8.29544 14.1553C8.13078 14.1666 7.91744 14.1666 7.60011 14.1666C7.28278 14.1666 7.06944 14.1666 6.90478 14.1553C6.74411 14.144 6.66611 14.1246 6.61478 14.1033C6.51358 14.0614 6.42163 14 6.34419 13.9226C6.26674 13.8451 6.20532 13.7532 6.16344 13.652C6.13678 13.588 6.11478 13.4873 6.10611 13.2493C6.08611 12.7213 5.81344 12.2126 5.32944 11.9333C4.84544 11.654 4.26878 11.672 3.80144 11.9186C3.59078 12.03 3.49278 12.0613 3.42344 12.07C3.2044 12.0989 2.98283 12.0397 2.80744 11.9053C2.76344 11.8713 2.70744 11.8133 2.61744 11.68C2.49203 11.4848 2.37264 11.2858 2.25944 11.0833C2.10078 10.8086 1.99478 10.6233 1.92211 10.4753C1.85078 10.3306 1.82878 10.2533 1.82211 10.198C1.79317 9.97894 1.8524 9.75736 1.98678 9.58198C2.02944 9.52665 2.10544 9.45731 2.30678 9.33065C2.75478 9.04931 3.05878 8.55865 3.05878 7.99998C3.05878 7.44131 2.75478 6.95065 2.30678 6.66931C2.10544 6.54265 2.02944 6.47331 1.98678 6.41798C1.8524 6.24259 1.79317 6.02102 1.82211 5.80198C1.82878 5.74665 1.85144 5.66865 1.92211 5.52465C1.99478 5.37598 2.10078 5.19131 2.25944 4.91665C2.41811 4.64198 2.52544 4.45731 2.61744 4.31998C2.70744 4.18665 2.76344 4.12865 2.80744 4.09465C2.98283 3.96027 3.2044 3.90104 3.42344 3.92998C3.49278 3.93865 3.59011 3.96998 3.80144 4.08131C4.26811 4.32798 4.84544 4.34665 5.32944 4.06665C5.81344 3.78731 6.08611 3.27865 6.10611 2.75065C6.11478 2.51265 6.13678 2.41198 6.16344 2.34798C6.24811 2.14331 6.41011 1.98131 6.61478 1.89665Z" fill="black"/>
</svg>
