<svg width="14" height="12" viewBox="0 0 14 12" fill="none" xmlns="http://www.w3.org/2000/svg">
<path d="M4.60886 3.59412L6.421 2.08411V8.33552C6.421 8.6173 6.69513 8.84574 7.03326 8.84574C7.37139 8.84574 7.64552 8.6173 7.64552 8.33552V2.08414L9.4575 3.59412C9.57705 3.69375 9.73375 3.74358 9.89041 3.74358C10.0471 3.74358 10.2038 3.69378 10.3234 3.59412C10.5625 3.39486 10.5625 3.07182 10.3234 2.87257L7.46633 0.491676C7.45197 0.479737 7.43691 0.468444 7.42127 0.45773C7.4145 0.453104 7.40735 0.44909 7.40046 0.44477C7.39139 0.43909 7.38254 0.433307 7.37311 0.428035C7.36466 0.423307 7.35588 0.419225 7.34719 0.414905C7.33874 0.410653 7.33045 0.406265 7.32172 0.402354C7.31286 0.398408 7.3038 0.395109 7.29474 0.391537C7.28564 0.387966 7.27674 0.38419 7.26739 0.380959C7.25865 0.377965 7.24976 0.375516 7.2409 0.372863C7.23094 0.36987 7.2211 0.366672 7.21086 0.364087C7.20204 0.361876 7.1931 0.360278 7.18424 0.358407C7.1738 0.356196 7.16343 0.353747 7.15281 0.351978C7.14261 0.350311 7.13228 0.349325 7.122 0.348066C7.11257 0.34691 7.10322 0.345447 7.09363 0.344665C7.07477 0.343134 7.05587 0.342386 7.03693 0.342284C7.03571 0.342284 7.03453 0.342148 7.0333 0.342148C7.03212 0.342148 7.03089 0.342284 7.02971 0.342284C7.01077 0.342352 6.99183 0.343134 6.97293 0.344665C6.96358 0.345447 6.95444 0.346876 6.94518 0.347998C6.93464 0.349257 6.92411 0.350277 6.91371 0.352012C6.90334 0.353713 6.8933 0.356094 6.88313 0.358237C6.87391 0.360176 6.86468 0.361876 6.85554 0.364155C6.8457 0.366638 6.83611 0.369734 6.82648 0.372625C6.81729 0.37538 6.80803 0.377897 6.79897 0.381027C6.78999 0.384122 6.78142 0.387761 6.77268 0.391197C6.76329 0.394871 6.75382 0.398374 6.7446 0.402456C6.73627 0.406163 6.72843 0.410381 6.72031 0.414395C6.71121 0.418885 6.70207 0.423171 6.69321 0.428103C6.68435 0.433035 6.67607 0.438545 6.66753 0.443818C6.66002 0.448478 6.65239 0.452797 6.64513 0.457798C6.63023 0.467968 6.61598 0.478751 6.60231 0.490009C6.60166 0.490554 6.60096 0.490996 6.60027 0.49154L3.74304 2.87253C3.50397 3.07179 3.50393 3.39483 3.74304 3.59408C3.98211 3.79338 4.36979 3.79331 4.60886 3.59412Z" fill="#323232"/>
<path d="M13.1559 6.21564C12.8177 6.21564 12.5436 6.44408 12.5436 6.72586V10.6375H1.52287V6.72586C1.52287 6.44408 1.24874 6.21564 0.910603 6.21564C0.572471 6.21564 0.29834 6.44408 0.29834 6.72586V11.1478C0.29834 11.4295 0.572471 11.658 0.910603 11.658H13.1559C13.494 11.658 13.7681 11.4295 13.7681 11.1478V6.72586C13.7681 6.44408 13.494 6.21564 13.1559 6.21564Z" fill="#323232"/>
</svg>
